<?xml version="1.0" encoding="UTF-8"?>
<svg width="110px" height="102px" viewBox="0 0 110 102" version="1.1" xmlns="http://www.w3.org/2000/svg" xmlns:xlink="http://www.w3.org/1999/xlink">
    <title>􀤦</title>
    <g id="Hi-Fi" stroke="none" stroke-width="1" fill="none" fill-rule="evenodd">
        <g id="Artboard" transform="translate(-331.000000, -558.000000)" fill="#757575" fill-rule="nonzero">
            <path d="M426.079914,660 C436.058315,660 441,655.099813 441,645.29944 L441,572.748134 C441,562.947761 436.058315,558 426.079914,558 L366.87473,558 C356.943844,558 351.954644,562.947761 351.954644,572.748134 L351.954644,595.441231 L340.598272,595.441231 C334.563715,595.441231 331,598.723881 331,604.385261 L331,645.632463 C331,655.099813 335.704104,660 345.349892,660 L426.079914,660 Z M425.67024,653 L358,653 C359.040353,650.946762 359.607818,648.559276 359.607818,645.789791 L359.607818,573.544457 C359.607818,568.578485 362.25599,566 366.984868,566 L425.67024,566 C430.351828,566 433,568.578485 433,573.544457 L433,645.503293 C433,650.469265 430.351828,653 425.67024,653 Z M421.057808,587 C422.718723,587 424,585.634146 424,583.926829 C424,582.268293 422.718723,581 421.057808,581 L371.989646,581 C370.281277,581 369,582.268293 369,583.926829 C369,585.634146 370.281277,587 371.989646,587 L421.057808,587 Z M421.057808,603 C422.718723,603 424,601.682927 424,600.02439 C424,598.317073 422.718723,597 421.057808,597 L371.989646,597 C370.281277,597 369,598.317073 369,600.02439 C369,601.682927 370.281277,603 371.989646,603 L421.057808,603 Z M345.546429,652 C341.878571,652 339,649.112077 339,645.324638 L339,605.745894 C339,603.994203 340.021429,603 341.739286,603 L352,603 L352,645.324638 C352,649.254106 349.167857,652 345.546429,652 Z M387.190476,637 C390.809524,637 393,634.809524 393,631.190476 L393,619.857143 C393,616.190476 390.809524,614 387.190476,614 L374.857143,614 C371.190476,614 369,616.190476 369,619.857143 L369,631.190476 C369,634.809524 371.190476,637 374.857143,637 L387.190476,637 Z M421.046555,620 C422.741155,620 424,618.731707 424,617.073171 C424,615.317073 422.741155,614 421.046555,614 L401.001862,614 C399.258845,614 398,615.317073 398,617.073171 C398,618.731707 399.258845,620 401.001862,620 L421.046555,620 Z M421.046555,637 C422.741155,637 424,635.731707 424,634.073171 C424,632.365854 422.741155,631 421.046555,631 L401.001862,631 C399.258845,631 398,632.365854 398,634.073171 C398,635.731707 399.258845,637 401.001862,637 L421.046555,637 Z" id="􀤦"></path>
        </g>
    </g>
</svg>