<?xml version="1.0" encoding="UTF-8"?>
<svg width="31px" height="25px" viewBox="0 0 31 25" version="1.1" xmlns="http://www.w3.org/2000/svg" xmlns:xlink="http://www.w3.org/1999/xlink">
    <title>􀝾</title>
    <g id="HIFI-FIX-BUAT-TECH" stroke="none" stroke-width="1" fill="none" fill-rule="evenodd">
        <g id="Main-Page---Vet-List-Main-Page" transform="translate(-83.000000, -765.000000)" fill="#999999" fill-rule="nonzero">
            <path d="M96.7143741,789.488281 C97.8382188,789.488281 98.7938565,789.188836 99.5812872,788.589945 C100.368718,787.991054 101.019365,787.092717 101.533228,785.894936 C102.047091,784.697154 102.459291,783.196229 102.769827,781.392163 C103.006426,780.046507 103.276296,778.987357 103.579439,778.214714 C103.882581,777.442071 104.239328,776.894936 104.649679,776.573309 C105.06003,776.251682 105.53138,776.090869 106.063727,776.090869 C106.692193,776.090869 107.21345,776.30159 107.627498,776.723032 C108.041546,777.144473 108.361324,777.780333 108.586833,778.63061 C108.765913,779.30583 108.890207,780.118599 108.959715,781.068915 L108.964058,781.130919 L108.944691,781.136381 C108.68228,781.214098 108.431756,781.323389 108.193117,781.464252 C107.66077,781.778485 107.237479,782.201775 106.923247,782.734122 C106.609014,783.26647 106.451897,783.85427 106.451897,784.497523 C106.451897,785.14817 106.609014,785.739668 106.923247,786.272015 C107.237479,786.804363 107.66077,787.227653 108.193117,787.541886 C108.725465,787.856119 109.316962,788.013235 109.967609,788.013235 C110.610862,788.013235 111.196814,787.856119 111.725465,787.541886 C112.254115,787.227653 112.675557,786.804363 112.98979,786.272015 C113.304023,785.739668 113.461139,785.14817 113.461139,784.497523 C113.461139,783.85427 113.304023,783.268318 112.98979,782.739668 C112.675557,782.211017 112.254115,781.789575 111.725465,781.475342 C111.423379,781.295781 111.102582,781.166315 110.763075,781.086946 L110.727647,781.079018 L110.724155,781.041769 C110.597042,779.718386 110.381829,778.589343 110.078515,777.65464 C109.716223,776.538189 109.207905,775.700851 108.553561,775.142625 C107.899217,774.5844 107.069272,774.305287 106.063727,774.305287 C105.169088,774.305287 104.400141,774.527098 103.756888,774.970721 C103.113635,775.414344 102.570197,776.125989 102.126574,777.105656 C101.682951,778.085324 101.313265,779.381072 101.017516,780.992902 C100.817886,782.079778 100.597923,783.040961 100.357627,783.876451 C100.117332,784.711941 99.8326735,785.412496 99.5036532,785.978115 C99.1746329,786.543734 98.7735238,786.97257 98.300326,787.264621 C97.8271283,787.556673 97.261509,787.702699 96.6034684,787.702699 C95.3982928,787.702699 94.4722299,787.079778 93.8252798,785.833937 C93.2490899,784.72436 92.9294845,783.199849 92.8664638,781.260404 L92.8645065,781.195766 L92.9030647,781.189138 C93.4508032,781.091058 93.9966556,780.870378 94.5406218,780.527098 C95.3021745,780.046507 96.0212133,779.403254 96.6977382,778.597339 C97.3742632,777.791424 97.9750026,776.894936 98.4999563,775.907875 C99.0249101,774.920814 99.4371098,773.915268 99.7365552,772.891239 C100.036001,771.867209 100.185723,770.900481 100.185723,769.991054 C100.185723,768.763697 99.8881264,767.839483 99.2929323,767.218411 C98.6977382,766.597339 97.8160377,766.286803 96.6478307,766.286803 L96.3301313,766.286856 L96.3266454,766.281142 C96.1782594,766.046795 95.9840272,765.858293 95.743949,765.715638 C95.4888658,765.564067 95.209753,765.488281 94.9066107,765.488281 C94.6034684,765.488281 94.3243556,765.564067 94.0692724,765.715638 C93.8141893,765.867209 93.6108621,766.070536 93.4592909,766.32562 C93.3077198,766.580703 93.2319342,766.859815 93.2319342,767.162958 C93.2319342,767.4661 93.3077198,767.745213 93.4592909,768.000296 C93.6108621,768.255379 93.8141893,768.458706 94.0692724,768.610278 C94.3243556,768.761849 94.6034684,768.837634 94.9066107,768.837634 C95.209753,768.837634 95.4888658,768.761849 95.743949,768.610278 C95.9690223,768.476538 96.1538013,768.302505 96.2982857,768.088176 L96.3085535,768.072477 L96.7365552,768.072385 C97.2984776,768.072385 97.7162225,768.235046 97.98979,768.56037 C98.2633575,768.885693 98.4001412,769.355194 98.4001412,769.968873 C98.4001412,770.671276 98.2818417,771.445767 98.0452429,772.292348 C97.808644,773.138928 97.4796236,773.98366 97.0581819,774.826544 C96.6367401,775.669427 96.1543002,776.440222 95.6108621,777.138928 C95.067424,777.837634 94.4870173,778.399557 93.8696421,778.824695 C93.2522669,779.249834 92.6256495,779.462403 91.98979,779.462403 C91.3613242,779.462403 90.7365552,779.249834 90.1154832,778.824695 C89.4944111,778.399557 88.912156,777.837634 88.3687179,777.138928 C87.8252798,776.440222 87.3446883,775.669427 86.9269434,774.826544 C86.5091985,773.98366 86.1801782,773.138928 85.9398824,772.292348 C85.6995867,771.445767 85.5794388,770.671276 85.5794388,769.968873 C85.5794388,769.355194 85.718071,768.885693 85.9953353,768.56037 C86.2725996,768.235046 86.6884961,768.072385 87.2430247,768.072385 L87.6532361,768.072477 L87.6634304,768.088176 C87.8050367,768.302505 87.9883765,768.476538 88.2134499,768.610278 C88.4685331,768.761849 88.7476458,768.837634 89.0507881,768.837634 C89.3613242,768.837634 89.6422854,768.761849 89.8936717,768.610278 C90.145058,768.458706 90.3465368,768.255379 90.4981079,768.000296 C90.6496791,767.745213 90.7254647,767.4661 90.7254647,767.162958 C90.7254647,766.859815 90.6496791,766.580703 90.4981079,766.32562 C90.3465368,766.070536 90.145058,765.867209 89.8936717,765.715638 C89.6422854,765.564067 89.3613242,765.488281 89.0507881,765.488281 C88.7476458,765.488281 88.4685331,765.564067 88.2134499,765.715638 C87.9733716,765.858293 87.7807768,766.046795 87.6356656,766.281142 L87.6322261,766.286856 L87.3317493,766.286803 C86.1635423,766.286803 85.2818417,766.597339 84.6866477,767.218411 C84.0914536,767.839483 83.7938565,768.763697 83.7938565,769.991054 C83.7938565,770.900481 83.9435793,771.867209 84.2430247,772.891239 C84.5424702,773.915268 84.9546698,774.920814 85.4796236,775.907875 C86.0045774,776.894936 86.6053168,777.791424 87.2818417,778.597339 C87.9583667,779.403254 88.6774055,780.046507 89.4389582,780.527098 C89.9829244,780.870378 90.5287767,781.091058 91.0765153,781.189138 L91.0782038,781.18952 L91.0802472,781.2579 C91.1575933,783.780717 91.6437687,785.749686 92.5387734,787.164806 C93.5184406,788.71379 94.9103076,789.488281 96.7143741,789.488281 Z M109.967609,786.449464 C109.605317,786.449464 109.276296,786.362588 108.980548,786.188836 C108.684799,786.015083 108.4482,785.778485 108.270751,785.479039 C108.093302,785.179594 108.004577,784.852422 108.004577,784.497523 C108.004577,784.135231 108.093302,783.806211 108.270751,783.510462 C108.4482,783.214714 108.684799,782.979963 108.980548,782.806211 C109.276296,782.632459 109.605317,782.545583 109.967609,782.545583 C110.322507,782.545583 110.647831,782.632459 110.943579,782.806211 C111.239328,782.979963 111.474078,783.214714 111.647831,783.510462 C111.821583,783.806211 111.908459,784.135231 111.908459,784.497523 C111.908459,784.852422 111.821583,785.179594 111.647831,785.479039 C111.474078,785.778485 111.239328,786.015083 110.943579,786.188836 C110.647831,786.362588 110.322507,786.449464 109.967609,786.449464 Z" id="􀝾"></path>
        </g>
    </g>
</svg>