<?xml version="1.0" encoding="UTF-8"?>
<svg width="61px" height="59px" viewBox="0 0 61 59" version="1.1" xmlns="http://www.w3.org/2000/svg" xmlns:xlink="http://www.w3.org/1999/xlink">
    <title>pawprint copy 2</title>
    <g id="Hi-Fi" stroke="none" stroke-width="1" fill="none" fill-rule="evenodd">
        <g id="Artboard" transform="translate(-603.000000, -557.000000)" fill-rule="nonzero" stroke="#757575" stroke-width="1.5">
            <g id="pawprint-copy-2" transform="translate(604.000000, 558.000000)">
                <path d="M36.7271308,31.9177356 C34.2628393,27.5863245 30.065856,25 25.4999392,25 C20.9340223,25 16.737039,27.5863245 14.2731652,31.9177356 L8.33513359,42.3548311 C7.34991843,44.0862657 6.89533227,46.0869718 7.02025993,48.1389902 C7.14518748,50.1914793 7.83834783,52.1027421 9.0245336,53.6675297 C10.211555,55.230905 11.7800444,56.2995175 13.5603675,56.7580322 C15.3406906,57.216547 17.1657204,57.0207132 18.8378286,56.1926562 L18.9498039,56.1366364 C23.1572327,54.0945039 27.9650663,54.1133341 32.1616318,56.1926562 C33.2441986,56.7288455 34.3911095,57 35.5484658,57 C36.1777,57 36.8106944,56.919501 37.4378395,56.7585029 C39.2181627,56.3004589 40.7866521,55.2318465 41.9740912,53.6680004 C43.1606948,52.1046251 43.8542729,50.1928916 43.9796184,48.1399318 C44.1049638,46.0869718 43.6503777,44.0867365 42.6651625,42.3543603 L36.7271308,31.9177356 Z" id="Path"></path>
                <path d="M9.09388815,27.5747371 C10.7282679,26.8707339 11.9699018,25.3938013 12.5899455,23.4157432 C13.1802242,21.5334885 13.1319041,19.4084741 12.4534895,17.4317166 C11.7746885,15.4562594 10.5400127,13.8436414 8.97676026,12.8903761 C7.33464927,11.8894259 5.53056921,11.7264301 3.89889539,12.4317337 C0.616219555,13.8471094 -0.89020851,18.3962529 0.541226777,22.5747542 C1.68467417,25.9005622 4.35155821,28 7.04782098,28 C7.73628604,28 8.42668397,27.8630143 9.09388815,27.5747371 Z" id="Path"></path>
                <path d="M22.4996105,20 C26.6352847,20 30,15.5145299 30,10.0011396 C30,4.4863817 26.6352847,0 22.4996105,0 C18.3643259,0 15,4.4863817 15,10.0011396 C15,15.5145299 18.3643259,20 22.4996105,20 Z" id="Path"></path>
                <path d="M37.5237139,21.6373782 L37.5241039,21.6373782 C38.1610867,21.8827478 38.8109418,22 39.4580665,22 C42.4779812,22 45.4210524,19.4489717 46.5440613,15.5284914 C47.1907959,13.2717254 47.1482783,10.8854839 46.4243101,8.80980239 C45.666796,6.63678796 44.2629373,5.05954165 42.4709599,4.36825152 C40.6785926,3.67696128 38.7403393,3.96533837 37.0127233,5.17951024 C35.362341,6.33935664 34.0977371,8.22127765 33.4517827,10.4780438 C32.0884912,15.2387561 33.9151848,20.2448382 37.5237139,21.6373782 L37.5237139,21.6373782 Z" id="Path"></path>
                <path d="M56.50295,23.2981196 L56.5017371,23.2967832 C53.5418845,20.8878219 49.1152453,21.9319427 46.6332708,25.6255646 C44.1537221,29.3209684 44.5414422,34.2890057 47.4968475,36.6997489 C48.5747013,37.5795008 49.8482343,38 51.1516853,38 C53.4234258,38 55.7869414,36.7224665 57.366931,34.3731947 C59.8460755,30.677791 59.4587597,25.7097536 56.50295,23.2981196 Z" id="Path"></path>
            </g>
        </g>
    </g>
</svg>