<?xml version="1.0" encoding="UTF-8"?>
<svg width="110px" height="102px" viewBox="0 0 110 102" version="1.1" xmlns="http://www.w3.org/2000/svg" xmlns:xlink="http://www.w3.org/1999/xlink">
    <title>􀤦 copy</title>
    <g id="Hi-Fi" stroke="none" stroke-width="1" fill="none" fill-rule="evenodd">
        <g id="Artboard" transform="translate(-418.000000, -699.000000)" fill="#384271" fill-rule="nonzero">
            <path d="M513.079914,801 C523.058315,801 528,796.099813 528,786.29944 L528,713.748134 C528,703.947761 523.058315,699 513.079914,699 L453.87473,699 C443.943844,699 438.954644,703.947761 438.954644,713.748134 L438.954644,736.441231 L427.598272,736.441231 C421.563715,736.441231 418,739.723881 418,745.385261 L418,786.632463 C418,796.099813 422.704104,801 432.349892,801 L513.079914,801 Z M512.67024,794 L445,794 C446.040353,791.946762 446.607818,789.559276 446.607818,786.789791 L446.607818,714.544457 C446.607818,709.578485 449.25599,707 453.984868,707 L512.67024,707 C517.351828,707 520,709.578485 520,714.544457 L520,786.503293 C520,791.469265 517.351828,794 512.67024,794 Z M508.057808,728 C509.718723,728 511,726.634146 511,724.926829 C511,723.268293 509.718723,722 508.057808,722 L458.989646,722 C457.281277,722 456,723.268293 456,724.926829 C456,726.634146 457.281277,728 458.989646,728 L508.057808,728 Z M508.057808,744 C509.718723,744 511,742.682927 511,741.02439 C511,739.317073 509.718723,738 508.057808,738 L458.989646,738 C457.281277,738 456,739.317073 456,741.02439 C456,742.682927 457.281277,744 458.989646,744 L508.057808,744 Z M432.546429,793 C428.878571,793 426,790.112077 426,786.324638 L426,746.745894 C426,744.994203 427.021429,744 428.739286,744 L439,744 L439,786.324638 C439,790.254106 436.167857,793 432.546429,793 Z M474.190476,778 C477.809524,778 480,775.809524 480,772.190476 L480,760.857143 C480,757.190476 477.809524,755 474.190476,755 L461.857143,755 C458.190476,755 456,757.190476 456,760.857143 L456,772.190476 C456,775.809524 458.190476,778 461.857143,778 L474.190476,778 Z M508.046555,761 C509.741155,761 511,759.731707 511,758.073171 C511,756.317073 509.741155,755 508.046555,755 L488.001862,755 C486.258845,755 485,756.317073 485,758.073171 C485,759.731707 486.258845,761 488.001862,761 L508.046555,761 Z M508.046555,778 C509.741155,778 511,776.731707 511,775.073171 C511,773.365854 509.741155,772 508.046555,772 L488.001862,772 C486.258845,772 485,773.365854 485,775.073171 C485,776.731707 486.258845,778 488.001862,778 L508.046555,778 Z" id="􀤦-copy"></path>
        </g>
    </g>
</svg>