<?xml version="1.0" encoding="UTF-8"?>
<svg width="27px" height="25px" viewBox="0 0 27 25" version="1.1" xmlns="http://www.w3.org/2000/svg" xmlns:xlink="http://www.w3.org/1999/xlink">
    <title>􀤦</title>
    <g id="HIFI-FIX-BUAT-TECH" stroke="none" stroke-width="1" fill="none" fill-rule="evenodd">
        <g id="Main-Page---Vet-List-Main-Page" transform="translate(-230.000000, -787.000000)" fill="#384271" fill-rule="nonzero">
            <path d="M252.771235,811.804688 C253.942877,811.804688 254.821608,811.515508 255.407429,810.93715 C255.99325,810.358792 256.286161,809.494986 256.286161,808.345732 L256.286161,791.274837 C256.286161,790.11812 255.99325,789.250583 255.407429,788.672225 C254.821608,788.093867 253.942877,787.804688 252.771235,787.804688 L238.823474,787.804688 C237.651832,787.804688 236.773101,788.093867 236.18728,788.672225 C235.601459,789.250583 235.308549,790.11812 235.308549,791.274837 L235.308549,796.614389 L232.633176,796.614389 C231.92422,796.614389 231.370116,796.79909 230.970862,797.168493 C230.571608,797.537896 230.371982,798.054688 230.371982,798.718867 L230.371982,808.42409 C230.371982,809.170359 230.495116,809.793493 230.741385,810.293493 C230.987653,810.793493 231.360788,811.170359 231.860788,811.42409 C232.360788,811.677822 232.991385,811.804688 233.752579,811.804688 L252.771235,811.804688 Z M252.748847,810.002449 L236.73019,810.002449 C236.983922,809.509911 237.110788,808.946479 237.110788,808.31215 L237.110788,791.375583 C237.110788,790.793493 237.261907,790.353195 237.564146,790.054688 C237.866385,789.75618 238.297355,789.606926 238.857056,789.606926 L252.748847,789.606926 C253.301086,789.606926 253.728325,789.75618 254.030564,790.054688 C254.332802,790.353195 254.483922,790.793493 254.483922,791.375583 L254.483922,808.244986 C254.483922,808.827076 254.332802,809.265508 254.030564,809.560285 C253.728325,809.855061 253.301086,810.002449 252.748847,810.002449 Z M251.595862,794.476329 C251.789892,794.476329 251.954071,794.407299 252.088399,794.26924 C252.222728,794.13118 252.289892,793.965135 252.289892,793.771105 C252.289892,793.584538 252.222728,793.425956 252.088399,793.295359 C251.954071,793.164762 251.789892,793.099464 251.595862,793.099464 L240.021235,793.099464 C239.819743,793.099464 239.651832,793.164762 239.517504,793.295359 C239.383176,793.425956 239.316011,793.584538 239.316011,793.771105 C239.316011,793.965135 239.383176,794.13118 239.517504,794.26924 C239.651832,794.407299 239.819743,794.476329 240.021235,794.476329 L251.595862,794.476329 Z M251.595862,798.416628 C251.789892,798.416628 251.954071,798.351329 252.088399,798.220732 C252.222728,798.090135 252.289892,797.927822 252.289892,797.733792 C252.289892,797.539762 252.222728,797.375583 252.088399,797.241255 C251.954071,797.106926 251.789892,797.039762 251.595862,797.039762 L240.021235,797.039762 C239.819743,797.039762 239.651832,797.106926 239.517504,797.241255 C239.383176,797.375583 239.316011,797.539762 239.316011,797.733792 C239.316011,797.927822 239.383176,798.090135 239.517504,798.220732 C239.651832,798.351329 239.819743,798.416628 240.021235,798.416628 L251.595862,798.416628 Z M233.752579,810.002449 C233.304817,810.002449 232.929817,809.851329 232.627579,809.54909 C232.32534,809.246852 232.17422,808.871852 232.17422,808.42409 L232.17422,799.065882 C232.17422,798.864389 232.232056,798.705807 232.347728,798.590135 C232.463399,798.474464 232.625713,798.416628 232.834668,798.416628 L235.308549,798.416628 L235.308549,808.42409 C235.308549,808.886777 235.157429,809.265508 234.85519,809.560285 C234.552952,809.855061 234.185414,810.002449 233.752579,810.002449 Z M243.580937,806.397971 C244.00631,806.397971 244.340265,806.276702 244.582802,806.034165 C244.82534,805.791628 244.946608,805.457673 244.946608,805.032299 L244.946608,802.36812 C244.946608,801.935285 244.82534,801.597598 244.582802,801.355061 C244.340265,801.112523 244.00631,800.991255 243.580937,800.991255 L240.681683,800.991255 C240.248847,800.991255 239.911161,801.112523 239.668623,801.355061 C239.426086,801.597598 239.304817,801.935285 239.304817,802.36812 L239.304817,805.032299 C239.304817,805.457673 239.426086,805.791628 239.668623,806.034165 C239.911161,806.276702 240.248847,806.397971 240.681683,806.397971 L243.580937,806.397971 Z M251.595862,802.36812 C251.789892,802.36812 251.952205,802.302822 252.082802,802.172225 C252.213399,802.041628 252.278698,801.883046 252.278698,801.696479 C252.278698,801.494986 252.213399,801.327076 252.082802,801.192747 C251.952205,801.058419 251.789892,800.991255 251.595862,800.991255 L246.961534,800.991255 C246.760041,800.991255 246.593996,801.058419 246.463399,801.192747 C246.332802,801.327076 246.267504,801.494986 246.267504,801.696479 C246.267504,801.883046 246.332802,802.041628 246.463399,802.172225 C246.593996,802.302822 246.760041,802.36812 246.961534,802.36812 L251.595862,802.36812 Z M251.595862,806.397971 C251.789892,806.397971 251.952205,806.332673 252.082802,806.202076 C252.213399,806.071479 252.278698,805.912896 252.278698,805.726329 C252.278698,805.524837 252.213399,805.356926 252.082802,805.222598 C251.952205,805.08827 251.789892,805.021105 251.595862,805.021105 L246.961534,805.021105 C246.760041,805.021105 246.593996,805.08827 246.463399,805.222598 C246.332802,805.356926 246.267504,805.524837 246.267504,805.726329 C246.267504,805.912896 246.332802,806.071479 246.463399,806.202076 C246.593996,806.332673 246.760041,806.397971 246.961534,806.397971 L251.595862,806.397971 Z" id="􀤦"></path>
        </g>
    </g>
</svg>