<?xml version="1.0" encoding="UTF-8"?>
<svg width="280px" height="36px" viewBox="0 0 280 36" version="1.1" xmlns="http://www.w3.org/2000/svg" xmlns:xlink="http://www.w3.org/1999/xlink">
    <title>Tech/Business Chat/Bubbles/Light/Customer - Message@3x</title>
    <defs>
        <filter color-interpolation-filters="auto" id="filter-1">
            <feColorMatrix in="SourceGraphic" type="matrix" values="0 0 0 0 0.372549 0 0 0 0 0.427451 0 0 0 0 0.690196 0 0 0 1.000000 0"></feColorMatrix>
        </filter>
    </defs>
    <g id="Tech/Business-Chat/Bubbles/Light/Customer---Message" stroke="none" stroke-width="1" fill="none" fill-rule="evenodd">
        <path d="M17.0797572,-3.82045197e-16 L262.920243,3.82045197e-16 C267.027375,-3.7242278e-16 269.881898,0.696192084 272.326343,2.00349528 C274.770787,3.31079847 276.689202,5.22921278 277.996505,7.67365722 C279.303808,10.1181017 280,12.9726248 280,17.0797572 L280,18.9202428 C280,23.0273752 279.303808,25.8818983 277.996505,28.3263428 C276.689202,30.7707872 274.770787,32.6892015 272.326343,33.9965047 C269.881898,35.3038079 267.027375,36 262.920243,36 L17.0797572,36 C12.9726248,36 10.1181017,35.3038079 7.67365722,33.9965047 C5.22921278,32.6892015 3.31079847,30.7707872 2.00349528,28.3263428 C0.696192084,25.8818983 3.03793004e-16,23.0273752 -1.99185646e-16,18.9202428 L3.10207949e-16,17.0797572 C-1.92770702e-16,12.9726248 0.696192084,10.1181017 2.00349528,7.67365722 C3.31079847,5.22921278 5.22921278,3.31079847 7.67365722,2.00349528 C10.1181017,0.696192084 12.9726248,3.7242278e-16 17.0797572,-3.82045197e-16 Z" id="Combined-Shape" fill="#5F6DB0" transform="translate(140.000000, 18.000000) scale(-1, 1) translate(-140.000000, -18.000000) "></path>
        <g id="Tail" transform="translate(265.000000, 22.000000)" filter="url(#filter-1)">
            <g>
                <path d="M15,-5 L15.0003276,0.0528036006 C15.0003276,6.29343478 15.6501069,8.55643844 16.8702566,10.8379199 C17.5078536,12.0301227 18.3011988,13.0882609 19.2389614,14.0010037 L19,14 C8.50658975,14 6.37056171e-12,5.49341025 6.36927663e-12,-5 L15,-5 Z" fill="#848E99"></path>
            </g>
        </g>
    </g>
</svg>