<?xml version="1.0" encoding="UTF-8"?>
<svg width="27px" height="26px" viewBox="0 0 27 26" version="1.1" xmlns="http://www.w3.org/2000/svg" xmlns:xlink="http://www.w3.org/1999/xlink">
    <title>pawprint copy 2</title>
    <g id="HIFI-FIX-BUAT-TECH" stroke="none" stroke-width="1" fill="none" fill-rule="evenodd">
        <g id="Main-Page---Vet-List-Main-Page" transform="translate(-304.000000, -763.000000)" fill-rule="nonzero" stroke="#384271" stroke-width="1.5">
            <g id="pawprint-copy-2" transform="translate(305.000000, 764.000000)">
                <path d="M15.6591892,13.3024049 C14.6242345,11.4550565 12.8615826,10.3519881 10.9439859,10.3519881 C9.02638913,10.3519881 7.2637373,11.4550565 6.22895797,13.3024049 L3.73509953,17.75383 C3.32132822,18.4922876 3.13041082,19.3455894 3.18287802,20.220776 C3.23534518,21.0961634 3.52645912,21.9113177 4.0246342,22.5787002 C4.52316021,23.2454803 5.18189543,23.7012439 5.92959672,23.8968006 C6.677298,24.0923574 7.44377518,24.0088342 8.14602829,23.6556676 L8.19305578,23.6317751 C9.9600945,22.7608049 11.9792916,22.7688359 13.741768,23.6556676 C14.1964251,23.8843525 14.6781055,24 15.1641727,24 C15.4284389,24 15.6942843,23.9656671 15.9576732,23.8970014 C16.7053744,23.7016455 17.3641097,23.2458819 17.8628111,22.5789009 C18.3611617,21.9121208 18.6524511,21.0967657 18.7050938,20.2211776 C18.7577364,19.3455894 18.566819,18.4924883 18.1530477,17.7536293 L15.6591892,13.3024049 Z" id="Path"></path>
                <path d="M3.86917454,11.525361 C4.56455373,11.2197493 5.0928314,10.5786047 5.35664129,9.71991872 C5.607787,8.90282151 5.58722826,7.98034101 5.29858339,7.12221959 C5.00977406,6.26466269 4.48445683,5.56461627 3.81934016,5.15079855 C3.12067157,4.7162805 2.35309003,4.64552312 1.65886214,4.9516993 C0.262182795,5.56612175 -0.378756814,7.54093014 0.230275635,9.35484075 C0.716777938,10.7985924 1.85145649,11.70997 2.9986348,11.70997 C3.29155588,11.70997 3.58529933,11.6505037 3.86917454,11.525361 Z" id="Path"></path>
                <path d="M9.40459947,8.25659589 C11.1506131,8.25659589 12.5711405,6.4048602 12.5711405,4.1287684 C12.5711405,1.85211204 11.1506131,0 9.40459947,0 C7.65875037,0 6.23838734,1.85211204 6.23838734,4.1287684 C6.23838734,6.4048602 7.65875037,8.25659589 9.40459947,8.25659589 Z" id="Path"></path>
                <path d="M15.8732272,9.27072226 L15.8733917,9.27072226 C16.1419712,9.37271829 16.4159783,9.42145805 16.688834,9.42145805 C17.9621608,9.42145805 19.203087,8.36103831 19.6765962,6.7313603 C19.9492875,5.79326048 19.9313602,4.80133985 19.6261039,3.93851384 C19.3067031,3.03522813 18.7147756,2.37959326 17.9592003,2.09223553 C17.2034607,1.80487776 16.3862092,1.92475128 15.6577715,2.42946219 C14.9618989,2.91159091 14.4286872,3.69387396 14.1563248,4.63197383 C13.5815021,6.61092221 14.3517152,8.69186667 15.8732272,9.27072226 L15.8732272,9.27072226 Z" id="Path"></path>
                <path d="M23.5416637,9.78896988 L23.5411703,9.78840532 C22.3370854,8.77070343 20.5363033,9.21180795 19.5266219,10.772234 C18.5179273,12.3334128 18.6756541,14.4322347 19.8779298,15.4506894 C20.3164069,15.8223538 20.8344874,16 21.3647387,16 C22.2888957,16 23.2503873,15.4602868 23.8931361,14.4678017 C24.9016662,12.9066229 24.7441039,10.8078009 23.5416637,9.78896988 Z" id="Path"></path>
            </g>
        </g>
    </g>
</svg>