<?xml version="1.0" encoding="UTF-8"?>
<svg width="126px" height="102px" viewBox="0 0 126 102" version="1.1" xmlns="http://www.w3.org/2000/svg" xmlns:xlink="http://www.w3.org/1999/xlink">
    <title>􀝾 copy</title>
    <g id="Hi-Fi" stroke="none" stroke-width="1" fill="none" fill-rule="evenodd">
        <g id="Artboard" transform="translate(-548.000000, -708.000000)" fill="#384271" fill-rule="nonzero">
            <path d="M602.874766,810 C617.194019,810 624.636262,798.593346 628.592897,775.591497 C631.560374,758.434381 635.752523,753.060998 642.58243,753.060998 C650.024673,753.060998 653.887103,760.131238 654.876262,774.507394 C648.705794,776.298521 644.231028,782.048983 644.231028,788.789279 C644.231028,797.085028 650.872523,803.731054 659.162617,803.731054 C667.358505,803.731054 674,797.085028 674,788.789279 C674,781.719039 669.054206,775.780037 662.365607,774.271719 C660.575701,755.0878 654.68785,745.472274 642.58243,745.472274 C631.136449,745.472274 624.918879,753.296673 621.150654,773.89464 C617.806355,792.418669 613.614206,802.411275 602.403738,802.411275 C592.700561,802.411275 587.048224,792.418669 586.530093,774.743068 C602.074019,771.914972 617.617944,745.378004 617.617944,727.136784 C617.617944,716.719963 612.530841,711.393715 602.59215,711.393715 L601.226168,711.393715 C599.954393,709.366913 597.740561,708 595.197009,708 C591.287477,708 588.084486,711.205176 588.084486,715.117375 C588.084486,719.029575 591.287477,722.23475 595.197009,722.23475 C597.693458,722.23475 599.860187,720.914972 601.131963,718.98244 L602.968972,718.98244 C607.726355,718.98244 610.034393,721.810536 610.034393,727.042514 C610.034393,741.984288 596.233271,767.390018 582.808972,767.390018 C569.384673,767.390018 555.583551,741.984288 555.583551,727.042514 C555.583551,721.810536 557.938692,718.98244 562.648972,718.98244 L564.391776,718.98244 C565.663551,720.914972 567.877383,722.23475 570.326729,722.23475 C574.236262,722.23475 577.439252,719.029575 577.439252,715.117375 C577.439252,711.205176 574.236262,708 570.326729,708 C567.83028,708 565.569346,709.366913 564.29757,711.393715 L563.025794,711.393715 C553.087103,711.393715 548,716.719963 548,727.136784 C548,745.330869 563.496822,771.773567 578.946542,774.695933 C579.605981,797.414972 588.178692,810 602.874766,810 Z M658.045455,798 C653.590909,798 650,794.409091 650,790 C650,785.545455 653.590909,782 658.045455,782 C662.454545,782 666,785.545455 666,790 C666,794.409091 662.454545,798 658.045455,798 Z" id="􀝾-copy"></path>
        </g>
    </g>
</svg>