<?xml version="1.0" encoding="UTF-8"?>
<svg width="126px" height="102px" viewBox="0 0 126 102" version="1.1" xmlns="http://www.w3.org/2000/svg" xmlns:xlink="http://www.w3.org/1999/xlink">
    <title>􀝾</title>
    <g id="Hi-Fi" stroke="none" stroke-width="1" fill="none" fill-rule="evenodd">
        <g id="Artboard" transform="translate(-461.000000, -567.000000)" fill="#757575" fill-rule="nonzero">
            <path d="M515.874766,669 C530.194019,669 537.636262,657.593346 541.592897,634.591497 C544.560374,617.434381 548.752523,612.060998 555.58243,612.060998 C563.024673,612.060998 566.887103,619.131238 567.876262,633.507394 C561.705794,635.298521 557.231028,641.048983 557.231028,647.789279 C557.231028,656.085028 563.872523,662.731054 572.162617,662.731054 C580.358505,662.731054 587,656.085028 587,647.789279 C587,640.719039 582.054206,634.780037 575.365607,633.271719 C573.575701,614.0878 567.68785,604.472274 555.58243,604.472274 C544.136449,604.472274 537.918879,612.296673 534.150654,632.89464 C530.806355,651.418669 526.614206,661.411275 515.403738,661.411275 C505.700561,661.411275 500.048224,651.418669 499.530093,633.743068 C515.074019,630.914972 530.617944,604.378004 530.617944,586.136784 C530.617944,575.719963 525.530841,570.393715 515.59215,570.393715 L514.226168,570.393715 C512.954393,568.366913 510.740561,567 508.197009,567 C504.287477,567 501.084486,570.205176 501.084486,574.117375 C501.084486,578.029575 504.287477,581.23475 508.197009,581.23475 C510.693458,581.23475 512.860187,579.914972 514.131963,577.98244 L515.968972,577.98244 C520.726355,577.98244 523.034393,580.810536 523.034393,586.042514 C523.034393,600.984288 509.233271,626.390018 495.808972,626.390018 C482.384673,626.390018 468.583551,600.984288 468.583551,586.042514 C468.583551,580.810536 470.938692,577.98244 475.648972,577.98244 L477.391776,577.98244 C478.663551,579.914972 480.877383,581.23475 483.326729,581.23475 C487.236262,581.23475 490.439252,578.029575 490.439252,574.117375 C490.439252,570.205176 487.236262,567 483.326729,567 C480.83028,567 478.569346,568.366913 477.29757,570.393715 L476.025794,570.393715 C466.087103,570.393715 461,575.719963 461,586.136784 C461,604.330869 476.496822,630.773567 491.946542,633.695933 C492.605981,656.414972 501.178692,669 515.874766,669 Z M571.045455,657 C566.590909,657 563,653.409091 563,649 C563,644.545455 566.590909,641 571.045455,641 C575.454545,641 579,644.545455 579,649 C579,653.409091 575.454545,657 571.045455,657 Z" id="􀝾"></path>
        </g>
    </g>
</svg>